Coordinates
version=1
nRows=30
nColumns=19
inDegrees=yes

Units are S.I. units (second, meters, Newtons, ...)
If the header above contains a line with 'inDegrees', this indicates whether rotational values are in degrees (yes) or radians (no).

endheader
time	pelvis_tilt	pelvis_list	pelvis_rotation	pelvis_tx	pelvis_ty	pelvis_tz	hip_flexion_r	hip_adduction_r	hip_rotation_r	knee_angle_r	knee_angle_r_beta	ankle_angle_r	hip_flexion_l	hip_adduction_l	hip_rotation_l	knee_angle_l	knee_angle_l_beta	ankle_angle_l
     13.48666667	     -3.04835525	      4.48980417	      2.52028156	      2.26045245	      0.93466596	      1.04338375	    -13.30297508	     -8.30681866	    -12.75568422	     60.82651628	      1.06162298	     -4.40282778	     20.16036529	      9.19581015	     -3.49423580	     11.35207974	      0.19813117	      3.77290063
     13.49333333	     -2.92822060	      4.78148682	      2.51507054	      2.26042800	      0.92964939	      1.04310900	    -12.36057624	     -8.69595926	    -11.89715730	     64.76628208	      1.13038487	     -3.96692272	     20.54108976	      9.40990288	     -4.29756091	     13.61797723	      0.23767854	      4.07116904
     13.50000000	     -2.16920278	      5.28576534	      2.58892197	      2.26043972	      0.92500992	      1.04292593	    -12.23206500	     -9.25151169	    -11.33478646	     68.47278323	      1.19507552	     -3.48692478	     20.17140793	      9.83221586	     -4.95380631	     15.99825429	      0.27922221	      4.47207455
     13.50666667	     -2.24481709	      5.43861156	      2.70436975	      2.26011481	      0.91917425	      1.04278964	    -10.97382573	     -9.36275381	    -10.51479738	     72.31299683	      1.26209989	     -3.02512154	     21.03365443	      9.84281928	     -5.64552450	     19.17244070	      0.33462222	      5.21807406
     13.51333333	     -2.08578513	      5.65252963	      2.87830869	      2.25971480	      0.91335164	      1.04270052	     -9.98771651	     -9.51367364	     -9.86937760	     76.00886243	      1.32660491	     -2.59245254	     21.63875435	      9.91267719	     -6.17213784	     22.49390198	      0.39259265	      6.20658886
     13.52000000	     -2.02074870	      5.81143135	      3.10382743	      2.25913848	      0.90727484	      1.04264084	     -8.83778663	     -9.59702957	     -9.29346700	     79.63558289	      1.38990312	     -2.17024080	     22.36119702	      9.94026563	     -6.51582888	     25.95396868	      0.45298221	      7.46444093
     13.52666667	     -1.26900344	      6.34917110	      3.30000397	      2.25857076	      0.90191842	      1.04262993	     -8.53290514	    -10.21757860	     -9.06236511	     83.03598052	      1.44925126	     -1.77684945	     22.09277928	     10.38162778	     -6.72931275	     29.02747768	      0.50662506	      8.93233400
     13.53333333	     -2.09341895	      5.93786950	      3.65915256	      2.25732934	      0.89487118	      1.04257770	     -6.06780179	     -9.56169143	     -8.29448634	     86.62679051	      1.51192271	     -1.37707315	     23.89259729	      9.90596027	     -6.60684689	     32.82147437	      0.57284279	     10.76857864
     13.54000000	     -2.17815498	      5.92871475	      4.01305121	      2.25607916	      0.88882361	      1.04249910	     -4.50580313	     -9.48755473	     -7.91155193	     89.94274857	      1.56979710	     -0.99473917	     24.54804364	      9.90968059	     -6.34204368	     36.00785418	      0.62845561	     12.71328211
     13.54666667	     -2.42874229	      5.94531984	      4.37587817	      2.25462414	      0.88292065	      1.04241527	     -2.64937957	     -9.50095647	     -7.55348838	     93.16484428	      1.62603328	     -0.63268397	     25.21143792	      9.99418519	     -5.98868994	     38.88125675	      0.67860595	     14.72553884
     13.55333333	     -2.63138167	      5.92922182	      4.72617166	      2.25292573	      0.87750055	      1.04232847	     -0.72642518	     -9.49497543	     -7.19930036	     96.21402958	      1.67925160	     -0.31233628	     25.63800297	     10.07690465	     -5.54954261	     41.41667091	      0.72285727	     16.78607852
     13.56000000	     -2.85890915	      5.88969124	      5.04996054	      2.25107679	      0.87261210	      1.04229226	      1.34342825	     -9.47716630	     -6.82039835	     99.06895532	      1.72907946	     -0.01654177	     25.88302325	     10.14209799	     -5.09244918	     43.57145657	      0.76046538	     18.78823274
     13.56666667	     -3.10604039	      5.86419446	      5.33410984	      2.24907245	      0.86829551	      1.04229136	      3.56598591	     -9.50371997	     -6.40913367	    101.72477460	      1.77543225	      0.21591818	     25.92231957	     10.21992353	     -4.64936291	     45.30174700	      0.79066464	     20.69165753
     13.57333333	     -2.58819987	      6.02702192	      5.57447987	      2.24707661	      0.86564084	      1.04229150	      4.92152201	     -9.77159786	     -6.13970182	    103.95979873	      1.81444078	      0.37821996	     24.79555226	     10.45815729	     -4.13317953	     46.43982991	      0.81052794	     22.33687324
     13.58000000	     -3.45168737	      5.81310935	      5.66105874	      2.24490077	      0.86194639	      1.04254297	      8.17665054	     -9.51902592	     -5.38676913	    106.23165224	      1.85409210	      0.56134027	     25.16420401	     10.23629758	     -3.97203080	     47.51352768	      0.82926750	     23.96159471
     13.58666667	     -2.99439530	      5.83063383	      5.93403978	      2.24281659	      0.86066719	      1.04257916	      9.75684419	     -9.53666154	     -5.13116285	    107.86526736	      1.88260406	      0.63728983	     23.73795280	     10.30685932	     -3.37510594	     47.96853666	      0.83720890	     25.04900356
     13.59333333	     -2.87715963	      5.79713330	      5.98940627	      2.24109972	      0.85961688	      1.04269790	     11.81143746	     -9.53584995	     -4.65989228	    109.23841569	      1.90657002	      0.74160164	     22.47668426	     10.22818013	     -3.06998296	     48.08135912	      0.83917803	     26.48479656
     13.60000000	     -3.48924895	      5.73076116	      5.62769540	      2.23924771	      0.85851247	      1.04341068	     15.01331743	     -9.34177540	     -3.63374233	    110.52737082	      1.92906653	      0.68069741	     21.90199955	      9.91413742	     -3.40824895	     47.87762363	      0.83562217	     27.21620491
     13.60666667	     -3.39524754	      5.49657834	      5.80606828	      2.23771942	      0.85897868	      1.04343956	     17.04963775	     -9.06982522	     -3.44672297	    111.12302874	      1.93946273	      0.71588180	     20.36947587	      9.68040794	     -2.84344654	     47.40782132	      0.82742257	     27.86393200
     13.61333333	     -3.42248284	      5.28631494	      5.82466122	      2.23645686	      0.85998379	      1.04365744	     19.22789307	     -8.76940565	     -3.13484737	    111.39736790	      1.94425085	      0.69722974	     18.81407241	      9.37704862	     -2.51924114	     46.63583520	      0.81394887	     28.26957191
     13.62000000	     -3.52413500	      4.99666273	      5.79366075	      2.23547746	      0.86156954	      1.04379817	     21.40984777	     -8.43740405	     -2.92303177	    111.29460555	      1.94245731	      0.71551735	     17.21866680	      9.00136208	     -2.18165997	     45.61788734	      0.79618233	     28.42537243
     13.62666667	     -3.68066959	      4.97338653	      5.29834620	      2.23474921	      0.86370062	      1.04445587	     23.73947090	     -8.16590130	     -2.16640927	    110.97254399	      1.93683627	      0.52983912	     15.48344769	      8.76055023	     -2.40625006	     44.17898651	      0.77106877	     28.23566439
     13.63333333	     -3.92395102	      4.56983909	      5.33322431	      2.23435642	      0.86635843	      1.04454611	     25.79492957	     -7.68554496	     -2.19544277	    110.12333246	      1.92201473	      0.64212746	     13.83472503	      8.30714082	     -1.92841251	     42.74910451	      0.74611263	     27.90721595
     13.64000000	     -4.17745057	      4.19868731	      5.25767846	      2.23420266	      0.86958325	      1.04470869	     27.76116251	     -7.20745403	     -2.17443640	    108.95500167	      1.90162352	      0.68206475	     12.08328008	      7.86831302	     -1.53410478	     41.05850258	      0.71660606	     27.23869528
     13.64666667	     -3.77253181	      4.12757510	      4.89325256	      2.23480334	      0.87414149	      1.04508523	     28.77140796	     -6.98248125	     -1.97834430	    107.39766880	      1.87444293	      0.81300975	      9.29053824	      7.62684599	     -1.50106113	     38.76087233	      0.67650484	     26.18012977
     13.65333333	     -3.73692370	      3.72527512	      4.83063800	      2.23548783	      0.87869962	      1.04515746	     29.97383198	     -6.53877406	     -2.22147483	    105.49863192	      1.84129848	      1.00285409	      6.99836121	      7.13179948	     -1.08753695	     36.58763965	      0.63857478	     24.86106120
     13.66000000	     -3.75455948	      3.28074316	      4.75764019	      2.23648606	      0.88356012	      1.04530817	     31.06716071	     -6.06629209	     -2.54774885	    103.30844972	      1.80307259	      1.26284754	      4.71412365	      6.56331516	     -0.75872072	     34.26039310	      0.59795666	     23.18028759
     13.66666667	     -3.84822791	      2.82916540	      4.66274753	      2.23781027	      0.88861886	      1.04543721	     32.06910605	     -5.61466936	     -2.91449407	    100.85662306	      1.76028014	      1.53673052	      2.47756477	      5.99260255	     -0.48527850	     31.81563472	      0.55528758	     21.12358672
     13.67333333	     -3.94370454	      2.33487819	      4.58171514	      2.23941073	      0.89393290	      1.04560783	     32.87921980	     -5.14770893	     -3.38763977	     98.12265666	      1.71256343	      1.85759448	      0.23911618	      5.35514511	     -0.27695262	     29.28502323	      0.51112008	     18.70821893
     13.68000000	     -4.06095678	      1.83279781	      4.50846029	      2.24126280	      0.89930622	      1.04572497	     33.54680172	     -4.70907748	     -3.92337840	     95.16177868	      1.66088636	      2.21541045	     -1.96415023	      4.70543167	     -0.14569372	     26.70692085	      0.46612370	     15.94593811
